# xmcd
#
# Track frame offsets:
#	150
#	17230
#	33503
#	48965
#
# Disc length: 902 seconds
#
# Revision: 0
# Processed by: cddbd v1.5.1PL0 Copyright (c) Steve Scherf et al.
# Submitted via: MusicManager 7.0.6.0 
#
DISCID=2a038404
DTITLE=The Main Attraction - The Main Attraction
DYEAR=1900
DGENRE=misc
TTITLE0=I Love You Baby
TTITLE1=Sweet Harmony
TTITLE2=You've Lost That Lovin' Feeling
TTITLE3=Mam (Alternate Take)
EXTD=
EXTT0=
EXTT1=
EXTT2=
EXTT3=
PLAYORDER=
